<?xml version="1.0" encoding="UTF-8" standalone="no"?>
<svg width="40px" height="40px" viewBox="0 0 40 40" version="1.1" xmlns="http://www.w3.org/2000/svg" xmlns:xlink="http://www.w3.org/1999/xlink">
    <!-- Generator: Sketch 49.1 (51147) - http://www.bohemiancoding.com/sketch -->
    <title>智能灌溉</title>
    <desc>Created with Sketch.</desc>
    <defs>
        <path d="M0,20 C3.1934505e-15,31.045695 8.954305,40 20,40 C31.045695,40 40,31.045695 40,20 C40,8.954305 31.045695,6.386901e-16 20,0 C8.954305,-6.386901e-16 7.66428119e-15,8.954305 0,20 Z" id="path-1"></path>
    </defs>
    <g id="视觉" stroke="none" stroke-width="1" fill="none" fill-rule="evenodd">
        <g id="3智能灌溉列表-copy" transform="translate(-574.000000, -419.000000)">
            <g id="Group" transform="translate(0.000000, 317.000000)">
                <g transform="translate(80.000000, 22.000000)" id="智能灌溉">
                    <g transform="translate(494.000000, 80.000000)">
                        <g id="Shape" fill-rule="nonzero">
                            <use fill="#1D1D31" fill-rule="evenodd" xlink:href="#path-1"></use>
                            <path stroke="#148AF4" stroke-width="1" d="M0.5,20 C0.5,30.7695526 9.23044738,39.5 20,39.5 C30.7695526,39.5 39.5,30.7695526 39.5,20 C39.5,9.23044738 30.7695526,0.5 20,0.5 C9.23044738,0.5 0.5,9.23044738 0.5,20 Z"></path>
                        </g>
                        <polyline id="Path-3" stroke="#E6F3FF" points="15.2943115 15.2553101 18.9755249 11.9961548 24.0142822 16.043457 26.6607056 12.9443359"></polyline>
                        <circle id="Oval-3" fill="#FFFFFF" cx="14.5" cy="15.5" r="1.5"></circle>
                        <circle id="Oval-3" fill="#FFFFFF" cx="26.5" cy="12.5" r="1.5"></circle>
                        <path d="M20.9205021,5 C14.8507671,5 9.85216177,10.4104561 9.85216177,17.1023359 L9.85216177,17.3159066 L8.06694561,21.160178 C7.99553697,21.3025584 7.99553697,21.5161291 8.06694561,21.7296997 C8.13835424,21.8720801 8.28117155,22.0856507 8.42398885,22.1568409 L11.2803347,23.509455 L11.2803347,28.5639599 C11.2803347,28.9911012 11.5659693,29.275862 11.9944212,29.2758621 L15.5648536,29.2758621 L15.5648536,34.2591769 C15.5648536,34.6863181 15.8504881,34.971079 16.27894,34.971079 L26.2761506,34.971079 C26.7046025,34.971079 26.9902371,34.6863181 26.9902371,34.2591769 L26.9902371,27.2825361 C30.1322176,25.0044494 31.9888424,21.2313682 31.9888424,17.1735261 C31.9888424,10.4104561 26.9902371,5 20.9205021,5 Z" id="Shape" stroke="#148AF4" stroke-width="2" fill-rule="nonzero"></path>
                        <path d="M16.9930265,11.980673 C16.9930265,13.0837834 17.8900181,13.9780312 18.9965133,13.9780312 C20.1030084,13.9780312 21,13.0837834 21,11.980673 C21,10.8775625 20.1030084,9.98331482 18.9965133,9.98331482 C17.8900181,9.98331482 16.9930265,10.8775625 16.9930265,11.980673 Z" id="Shape" fill="#22D0FF" fill-rule="nonzero"></path>
                        <path d="M22,16 C22,17.1045695 22.8954305,18 24,18 C25.1045695,18 26,17.1045695 26,16 C26,14.8954305 25.1045695,14 24,14 C22.8954305,14 22,14.8954305 22,16 Z" id="Shape" fill="#22D0FF" fill-rule="nonzero"></path>
                    </g>
                </g>
            </g>
        </g>
    </g>
</svg>